<svg xmlns="http://www.w3.org/2000/svg"  viewBox="0 0 50 50" width="50px" height="50px"><path d="M 28.875 0 C 28.855469 0.0078125 28.832031 0.0195313 28.8125 0.03125 L 0.8125 5.34375 C 0.335938 5.433594 -0.0078125 5.855469 0 6.34375 L 0 43.65625 C -0.0078125 44.144531 0.335938 44.566406 0.8125 44.65625 L 28.8125 49.96875 C 29.101563 50.023438 29.402344 49.949219 29.632813 49.761719 C 29.859375 49.574219 29.996094 49.296875 30 49 L 30 42.5625 C 31.8125 42.847656 33.84375 43 36 43 C 39.671875 43 43.011719 42.546875 45.5 41.78125 C 46.746094 41.398438 47.765625 40.957031 48.5625 40.375 C 49.359375 39.792969 50 38.992188 50 38 L 50 30 C 50.007813 29.9375 50.007813 29.875 50 29.8125 L 50 21 C 50.007813 20.9375 50.007813 20.875 50 20.8125 L 50 12 C 50 11.96875 50 11.9375 50 11.90625 C 50 11.875 50 11.84375 50 11.8125 C 50 11.792969 49.972656 11.769531 49.96875 11.75 C 49.96875 11.738281 49.96875 11.730469 49.96875 11.71875 C 49.863281 10.851563 49.285156 10.152344 48.5625 9.625 C 47.765625 9.042969 46.746094 8.601563 45.5 8.21875 C 43.011719 7.453125 39.671875 7 36 7 C 33.84375 7 31.8125 7.152344 30 7.4375 L 30 1 C 30.003906 0.710938 29.878906 0.4375 29.664063 0.246094 C 29.449219 0.0546875 29.160156 -0.0351563 28.875 0 Z M 28 2.1875 L 28 8.46875 C 27.988281 8.5625 27.988281 8.65625 28 8.75 L 28 15.1875 C 27.984375 15.292969 27.984375 15.394531 28 15.5 L 28 33.1875 C 27.984375 33.292969 27.984375 33.394531 28 33.5 L 28 41.1875 C 27.984375 41.292969 27.984375 41.394531 28 41.5 L 28 47.8125 L 2 42.84375 L 2 7.15625 Z M 36 9 C 39.507813 9 42.691406 9.441406 44.90625 10.125 C 46.015625 10.464844 46.855469 10.875 47.375 11.25 C 47.894531 11.625 48 11.886719 48 12 C 48 12.113281 47.894531 12.375 47.375 12.75 C 46.855469 13.125 46.015625 13.535156 44.90625 13.875 C 42.691406 14.558594 39.507813 15 36 15 C 33.8125 15 31.777344 14.800781 30 14.5 L 30 9.5 C 31.777344 9.199219 33.8125 9 36 9 Z M 48 14.75 L 48 20.8125 C 47.992188 20.875 47.992188 20.9375 48 21 C 48 21.113281 47.894531 21.375 47.375 21.75 C 46.855469 22.125 46.015625 22.535156 44.90625 22.875 C 42.691406 23.558594 39.507813 24 36 24 C 33.820313 24 31.773438 23.824219 30 23.53125 L 30 16.5625 C 31.8125 16.847656 33.84375 17 36 17 C 39.671875 17 43.011719 16.546875 45.5 15.78125 C 46.460938 15.484375 47.304688 15.152344 48 14.75 Z M 16.375 14.84375 C 15.011719 14.949219 13.671875 15.027344 12.3125 15.125 C 10.621094 21.261719 8.828125 27.394531 7.125 33.53125 C 8.261719 33.605469 9.421875 33.660156 10.5625 33.75 C 10.917969 32.375 11.25 31.007813 11.59375 29.625 C 13.375 29.710938 15.179688 29.773438 16.96875 29.78125 C 17.355469 31.230469 17.738281 32.699219 18.09375 34.15625 C 19.429688 34.277344 20.777344 34.378906 22.125 34.46875 C 20.195313 27.933594 18.328125 21.371094 16.375 14.84375 Z M 14.1875 18.3125 C 14.710938 21.074219 15.523438 23.773438 16.1875 26.5 C 14.898438 26.492188 13.625 26.480469 12.34375 26.46875 C 12.933594 23.742188 13.796875 21.082031 14.1875 18.3125 Z M 48 23.75 L 48 29.8125 C 47.992188 29.875 47.992188 29.9375 48 30 C 48 30.113281 47.894531 30.375 47.375 30.75 C 46.855469 31.125 46.015625 31.535156 44.90625 31.875 C 42.691406 32.558594 39.507813 33 36 33 C 33.816406 33 31.777344 32.796875 30 32.5 L 30 25.5625 C 31.820313 25.847656 33.839844 26 36 26 C 39.671875 26 43.011719 25.546875 45.5 24.78125 C 46.460938 24.484375 47.304688 24.152344 48 23.75 Z M 48 32.75 L 48 38 C 48 38.113281 47.894531 38.375 47.375 38.75 C 46.855469 39.125 46.015625 39.535156 44.90625 39.875 C 42.691406 40.558594 39.507813 41 36 41 C 33.8125 41 31.777344 40.800781 30 40.5 L 30 34.5625 C 31.816406 34.847656 33.84375 35 36 35 C 39.671875 35 43.011719 34.546875 45.5 33.78125 C 46.460938 33.484375 47.304688 33.152344 48 32.75 Z"/></svg>