<svg xmlns="http://www.w3.org/2000/svg"  viewBox="0 0 48 48" width="48px" height="48px"><path d="M 16.365234 5.0058594 C 14.481179 5.0058594 12.921875 6.5651629 12.921875 8.4492188 L 12.921875 13 L 6.1054688 13 C 4.4078712 13 3 14.409085 3 16.105469 L 3 18.75 A 1.50015 1.50015 0 1 0 6 18.75 L 6 16.105469 C 6 16.029852 6.0290662 16 6.1054688 16 L 21.896484 16 C 21.972104 16 22.001953 16.02907 22.001953 16.105469 L 22.001953 31.896484 C 22.001953 31.972104 21.972883 32.001953 21.896484 32.001953 L 6.1054688 32.001953 C 6.0298524 32.001953 6 31.972887 6 31.896484 L 6 23.708984 A 1.50015 1.50015 0 1 0 3 23.708984 L 3 31.896484 C 3 33.594082 4.409085 35.001953 6.1054688 35.001953 L 12.921875 35.001953 L 12.921875 39.550781 C 12.921875 41.434837 14.481179 42.994141 16.365234 42.994141 L 33.552734 42.994141 A 1.50015 1.50015 0 1 0 33.552734 39.994141 L 30.5 39.994141 L 30.5 34.25 L 38.488281 34.25 A 1.50015 1.50015 0 1 0 38.488281 31.25 L 30.5 31.25 L 30.5 25.5 L 42.078125 25.5 L 42.078125 39.550781 C 42.078125 39.814725 41.89871 39.994141 41.634766 39.994141 L 39.425781 39.994141 A 1.50015 1.50015 0 1 0 39.425781 42.994141 L 41.634766 42.994141 C 43.518821 42.994141 45.078125 41.434837 45.078125 39.550781 L 45.078125 8.4492188 C 45.078125 6.5651629 43.518821 5.0058594 41.634766 5.0058594 L 24.701172 5.0058594 A 1.50015 1.50015 0 1 0 24.701172 8.0058594 L 27.5 8.0058594 L 27.5 13.75 L 27.339844 13.75 A 1.50015 1.50015 0 1 0 27.339844 16.75 L 27.5 16.75 L 27.5 22.5 L 25.001953 22.5 L 25.001953 16.105469 C 25.001953 14.407871 23.592868 13 21.896484 13 L 15.921875 13 L 15.921875 8.4492188 C 15.921875 8.1852746 16.10129 8.0058594 16.365234 8.0058594 L 18.724609 8.0058594 A 1.50015 1.50015 0 1 0 18.724609 5.0058594 L 16.365234 5.0058594 z M 30.5 8.0058594 L 41.634766 8.0058594 C 41.89871 8.0058594 42.078125 8.1852746 42.078125 8.4492188 L 42.078125 13.75 L 30.5 13.75 L 30.5 8.0058594 z M 30.5 16.75 L 42.078125 16.75 L 42.078125 22.5 L 30.5 22.5 L 30.5 16.75 z M 9.8066406 18.748047 C 9.7166406 18.748047 9.6348437 18.796047 9.5898438 18.873047 C 9.5448438 18.950047 9.5467969 19.046047 9.5917969 19.123047 L 12.425781 23.974609 L 9.3164062 28.863281 C 9.2674063 28.940281 9.2645937 29.038188 9.3085938 29.117188 C 9.3525938 29.197187 9.4363437 29.248047 9.5273438 29.248047 L 11.912109 29.248047 C 12.004109 29.248047 12.090766 29.196234 12.134766 29.115234 L 14.015625 25.597656 L 15.904297 29.115234 C 15.948297 29.196234 16.033 29.248047 16.125 29.248047 L 18.476562 29.248047 C 18.567563 29.248047 18.651312 29.199141 18.695312 29.119141 C 18.739313 29.039141 18.732547 28.944187 18.685547 28.867188 L 15.626953 23.998047 L 18.617188 19.130859 C 18.665187 19.053859 18.666094 18.955953 18.621094 18.876953 C 18.577094 18.797953 18.495297 18.748047 18.404297 18.748047 L 16.175781 18.748047 C 16.083781 18.748047 15.999078 18.798906 15.955078 18.878906 L 14.134766 22.21875 L 12.416016 18.884766 C 12.373016 18.801766 12.287359 18.748047 12.193359 18.748047 L 9.8066406 18.748047 z M 25.001953 25.5 L 27.5 25.5 L 27.5 31.25 L 25.001953 31.25 L 25.001953 25.5 z M 23.689453 34.25 L 27.5 34.25 L 27.5 39.994141 L 16.365234 39.994141 C 16.10129 39.994141 15.921875 39.814725 15.921875 39.550781 L 15.921875 35.001953 L 21.896484 35.001953 C 22.591606 35.001953 23.168348 34.645409 23.689453 34.25 z"/></svg>