<svg xmlns="http://www.w3.org/2000/svg"  viewBox="0 0 50 50" width="50px" height="50px"><path d="M 15 4 C 12.802666 4 11 5.8026661 11 8 L 11 10.832031 A 1.0001 1.0001 0 0 0 11 11.158203 L 11 14 L 6 14 C 3.8026661 14 2 15.802666 2 18 L 2 32 C 2 34.197334 3.8026661 36 6 36 L 9 36 L 9 42 C 9 44.197334 10.802666 46 13 46 L 44 46 C 46.197334 46 48 44.197334 48 42 L 48 28 C 48 26.706873 47.157321 25.604868 46 25.1875 L 46 11.167969 A 1.0001 1.0001 0 0 0 46 10.841797 L 46 8 C 46 5.8026661 44.197334 4 42 4 L 15 4 z M 15 6 L 42 6 C 43.116666 6 44 6.8833339 44 8 L 44 10 L 23.154297 10 A 1.0001 1.0001 0 0 0 22.984375 9.9863281 A 1.0001 1.0001 0 0 0 22.839844 10 L 13 10 L 13 8 C 13 6.8833339 13.883334 6 15 6 z M 13 12 L 22 12 L 22 14.560547 C 21.40837 14.213648 20.730688 14 20 14 L 13 14 L 13 12 z M 24 12 L 33 12 L 33 19 L 24 19 L 24 18 L 24 12 z M 35 12 L 44 12 L 44 19 L 35 19 L 35 12 z M 6 16 L 20 16 C 21.116666 16 22 16.883334 22 18 L 22 21 L 22 32 C 22 33.116666 21.116666 34 20 34 L 6 34 C 4.8833339 34 4 33.116666 4 32 L 4 18 C 4 16.883334 4.8833339 16 6 16 z M 13 19 C 9.484 19 7.3652344 21.686 7.3652344 25 C 7.3652344 28.314 9.476 31 13 31 C 16.525 31 18.634766 28.314953 18.634766 25.001953 C 18.634766 21.686953 16.516 19 13 19 z M 24 21 L 33 21 L 33 28 L 24 28 L 24 21 z M 35 21 L 44 21 L 44 28 L 35 28 L 35 21 z M 13 21.027344 C 14.989 21.027344 16.1875 22.807953 16.1875 25.001953 C 16.1875 27.195953 14.994 28.974609 13 28.974609 C 11.005 28.974609 9.8125 27.196953 9.8125 25.001953 C 9.8125 22.806953 11.011 21.027344 13 21.027344 z M 24 30 L 33 30 L 33 33.75 L 28.498047 35.625 L 23.654297 33.607422 C 23.873347 33.114148 24 32.571413 24 32 L 24 30 z M 35 30 L 41.998047 30 L 35 32.916016 L 35 30 z M 46 30.5 L 46 42 C 46 42.302597 45.929295 42.584449 45.8125 42.839844 L 31.097656 36.708984 L 46 30.5 z M 22.339844 35.224609 L 43.398438 44 L 13 44 C 11.883334 44 11 43.116666 11 42 L 11 36 L 20 36 C 20.874492 36 21.679125 35.706894 22.339844 35.224609 z"/></svg>