<svg xmlns="http://www.w3.org/2000/svg"  viewBox="0 0 48 48" width="48px" height="48px"><path d="M 17.4375 5 C 14.969999 5 12.9375 7.0324991 12.9375 9.5 A 1.50015 1.50015 0 1 0 15.9375 9.5 C 15.9375 8.6535009 16.591001 8 17.4375 8 L 40.480469 8 C 41.326968 8 41.980469 8.6535009 41.980469 9.5 L 41.980469 13.550781 L 27.298828 13.550781 A 1.50015 1.50015 0 1 0 27.298828 16.550781 L 41.980469 16.550781 L 41.980469 22.365234 L 27.298828 22.365234 A 1.50015 1.50015 0 1 0 27.298828 25.365234 L 41.980469 25.365234 L 41.980469 31.236328 L 28.488281 31.236328 A 1.50015 1.50015 0 1 0 28.488281 34.236328 L 41.980469 34.236328 L 41.980469 38.5 C 41.980469 39.346499 41.326968 40 40.480469 40 L 17.4375 40 C 16.591001 40 15.9375 39.346499 15.9375 38.5 A 1.50015 1.50015 0 1 0 12.9375 38.5 C 12.9375 40.967501 14.969999 43 17.4375 43 L 40.480469 43 C 42.94797 43 44.980469 40.967501 44.980469 38.5 L 44.980469 9.5 C 44.980469 7.0324991 42.94797 5 40.480469 5 L 17.4375 5 z M 6.1054688 13 C 4.4078712 13 3 14.409085 3 16.105469 L 3 31.894531 C 3 33.592129 4.409085 35 6.1054688 35 L 15.894531 35 A 1.50015 1.50015 0 1 0 15.894531 32 L 6.1054688 32 C 6.0298524 32 6 31.970934 6 31.894531 L 6 16.105469 C 6 16.029852 6.0290662 16 6.1054688 16 L 6.2128906 16 A 1.50015 1.50015 0 1 0 6.2128906 13 L 6.1054688 13 z M 10.957031 13 A 1.50015 1.50015 0 1 0 10.957031 16 L 21.894531 16 C 21.970148 16 22 16.029066 22 16.105469 L 22 31.896484 C 22 31.972104 21.97093 32.001953 21.894531 32.001953 L 20.787109 32.001953 A 1.50015 1.50015 0 1 0 20.787109 35.001953 L 21.894531 35.001953 C 23.592129 35.001953 25 33.592868 25 31.896484 L 25 16.105469 C 25 14.407871 23.590915 13 21.894531 13 L 10.957031 13 z M 7.8828125 18.939453 C 7.8068125 18.939453 7.7335469 18.975156 7.6855469 19.035156 C 7.6385469 19.095156 7.6216719 19.172094 7.6386719 19.246094 L 9.8945312 28.867188 C 9.9205312 28.980187 10.020719 29.060547 10.136719 29.060547 L 12.400391 29.060547 C 12.517391 29.060547 12.619531 28.979234 12.644531 28.865234 L 14.046875 22.5625 L 15.451172 28.865234 C 15.476172 28.980234 15.578313 29.060547 15.695312 29.060547 L 17.861328 29.060547 C 17.977328 29.060547 18.079469 28.980188 18.105469 28.867188 L 20.359375 19.246094 C 20.378375 19.171094 20.361453 19.093203 20.314453 19.033203 C 20.266453 18.973203 20.193187 18.939453 20.117188 18.939453 L 18.236328 18.939453 C 18.118328 18.939453 18.016188 19.021719 17.992188 19.136719 L 16.736328 25.035156 L 15.34375 19.132812 C 15.31775 19.019813 15.215609 18.939453 15.099609 18.939453 L 12.996094 18.939453 C 12.880094 18.939453 12.779906 19.020813 12.753906 19.132812 L 11.308594 25.253906 L 10.007812 19.138672 C 9.9838125 19.023672 9.8816719 18.939453 9.7636719 18.939453 L 7.8828125 18.939453 z"/></svg>